<?xml version="1.0" encoding="UTF-8"?>
<svg width="1600px" height="1200px" viewBox="0 0 1600 1200" version="1.1" xmlns="http://www.w3.org/2000/svg" xmlns:xlink="http://www.w3.org/1999/xlink">
    <!-- Generator: Sketch 55.2 (78181) - https://sketchapp.com -->
    <title>Clarence</title>
    <desc>Created with Sketch.</desc>
    <g id="Patterns" stroke="none" stroke-width="1" fill="none" fill-rule="evenodd">
        <g id="Clarence" fill-rule="nonzero">
            <g transform="translate(-310.000000, -500.000000)" id="Shape">
                <path d="M30.6611014,616.767081 C80.253118,749.104545 118.850817,886.059116 158.046246,1021.74913 C199.838372,1166.36947 199.955958,1318.52815 215.692923,1466.29518 C225.119424,1555.34359 243.600069,1641.15708 302.530396,1711.94292 C343.793384,1761.45674 393.277613,1794.80578 454.687052,1814.04862 C540.240875,1840.85921 633.310421,1841.40817 717.17884,1872.70843 C736.590376,1879.95268 756.227286,1889.71625 769.112784,1906.54761 C779.803337,1920.54597 784.898743,1938.13215 791.983317,1953.66955 C798.293781,1967.50127 808.93534,1973.01043 822.428366,1974.47104 C863.583567,1978.9117 916.448402,1954.14989 959.171419,1946.60175 C968.196167,1945.0039 979.74902,1943.30802 987.686094,1938.55367 C993.349833,1935.15211 993.183253,1930.31934 992.879488,1926.11395 C990.517964,1893.46091 991.997591,1859.20021 983.815545,1827.0275 C974.438039,1790.14946 951.038368,1764.64264 919.0353,1748.6053 C864.161699,1721.15753 793.384553,1719.11855 731.044223,1708.23747 C669.517199,1697.45442 607.578622,1685.69109 548.5993,1664.56611 C498.674122,1646.71525 451.884579,1621.4339 412.551966,1585.55574 C363.283311,1540.5708 336.669615,1478.43101 320.315322,1415.69325 C280.140007,1261.37797 283.471619,1095.99535 245.118892,939.405818 C226.040516,861.493361 201.866736,784.218085 178.026116,707.648609 C157.615096,642.077846 135.832236,575.938522 106.406268,514.357489 C98.1262337,497.01638 88.0236119,473.675972 69.5919613,464.363336 C60.6456047,459.844257 51.6208571,460.66769 42.9880639,462.294951 C30.1711586,464.716236 17.2954601,470.450859 9.60335717,481.26332 C-15.8736717,517.023844 15.7374418,581.555512 30.6611014,616.718067" fill="#137D9F" transform="translate(496.500000, 1218.000000) rotate(-360.000000) translate(-496.500000, -1218.000000) "></path>
                <path d="M128.555583,510.760006 C158.964923,581.105776 182.821541,654.049683 205.295024,727.160262 C220.058268,775.201276 234.242754,823.467788 248.505715,871.675475 C270.272917,945.207639 283.378362,1020.54379 294.041249,1096.32114 C305.616418,1178.55951 314.955028,1261.93518 331.533023,1342.94802 C350.347576,1434.88283 380.580345,1522.59199 455.818938,1584.29038 C515.656672,1633.31182 589.002038,1660.28342 663.171399,1679.11746 C709.275882,1690.81398 756.02779,1699.49077 802.809126,1707.72637 C846.441624,1715.41294 892.075253,1719.41309 933.275004,1736.76668 C988.688669,1760.11069 1014.9388,1805.91632 1041.91482,1855.86917 C1051.91067,1874.37967 1068.40038,1887.14485 1086.37132,1896.6158 C1129.44468,1919.32253 1179.9438,1929.46997 1228.60855,1937.48988 C1234.96508,1938.53893 1241.55704,1939.56839 1248.37462,1940.34292 C1261.94934,1941.87162 1275.62238,1942.34364 1289.27028,1941.75474 C1290.25123,1941.75474 1291.23217,1941.68611 1292.21312,1941.61748 C1301.78716,1940.90177 1313.14652,1940.31351 1321.58266,1934.87213 C1326.56586,1931.65632 1326.40891,1926.40123 1325.50644,1921.21476 C1307.91807,1823.48561 1283.68869,1721.20727 1197.86569,1663.69531 C1146.85647,1629.49796 1082.97724,1624.88994 1022.80599,1615.43861 C953.766975,1604.65389 884.492537,1593.54563 816.463901,1578.79998 C732.985358,1560.71107 646.956354,1537.96512 572.208234,1494.54192 C493.938517,1449.05983 451.993247,1380.46903 423.428086,1297.36788 C386.838784,1190.92272 371.222116,1077.27141 349.759008,966.257446 C328.374375,855.635659 295.669621,748.48459 262.062395,641.255086 C241.854898,576.791889 220.793978,511.211003 191.512726,451.228366 C182.978492,433.747319 173.100362,416.383925 158.611782,402.716746 C148.174512,392.824219 135.2064,383.019931 121.031724,379.666864 C111.987398,377.558942 98.6661449,380.441403 92.8981797,388.412289 C82.0391025,403.393242 91.7995197,426.50195 97.5871038,441.649576 C106.592192,465.179868 117.843648,487.974839 128.585012,510.760006" fill="#0ABBAB" transform="translate(707.000000, 1160.500000) rotate(-360.000000) translate(-707.000000, -1160.500000) "></path>
                <path d="M197.910457,430.410511 C229.056402,493.25542 252.134009,559.51986 273.456776,626.097838 C288.162132,672.148832 302.161632,718.601546 316.337596,764.848501 C339.287756,839.735255 354.806809,916.464048 370.110183,993.212438 C386.835076,1077.02525 404.491307,1161.25937 430.362931,1242.30912 C445.587877,1289.98659 464.09702,1337.57589 490.566662,1380.57968 C517.604911,1424.48489 558.113267,1456.1131 602.876372,1480.59851 C694.049584,1530.45116 798.614473,1554.53485 899.708898,1574.66012 C953.873629,1585.43801 1008.37168,1594.41305 1062.88934,1603.18234 C1113.73066,1611.36374 1166.33662,1615.91985 1213.15848,1638.98454 C1287.42053,1675.4726 1330.14449,1746.38133 1369.64308,1815.69298 C1383.03476,1839.20838 1400.60276,1859.40223 1420.30793,1877.36212 C1463.54168,1916.76021 1509.29495,1948.03569 1564.96943,1968.17075 C1571.92733,1970.84092 1579.0536,1973.05027 1586.302,1974.78446 C1598.94861,1977.50833 1612.27166,1979.35037 1625.33002,1976.74408 C1626.0947,1976.59711 1626.83977,1976.41094 1627.55543,1976.22478 C1637.05509,1973.70667 1641.28043,1968.66066 1643.48623,1961.41008 C1644.90775,1956.74619 1643.18232,1950.44602 1640.72162,1943.94009 C1595.6252,1824.63863 1551.31306,1689.63083 1445.83643,1612.14759 C1391.3874,1572.15181 1325.95837,1566.60609 1260.07837,1557.11175 C1178.27737,1545.35405 1096.2803,1533.52776 1015.18516,1518.60528 C911.404559,1499.51861 804.241723,1477.53171 707.725565,1432.78387 C661.648781,1411.40445 618.062104,1382.0004 587.651426,1340.5937 C561.622945,1305.13443 541.878553,1264.32541 525.143857,1224.08468 C482.066965,1120.46015 455.989466,1010.17292 428.24536,901.110451 C401.69729,796.682475 368.551416,694.762809 334.484006,592.725565 C315.386649,535.534151 296.004989,477.215957 268.996151,424.198526 C260.653312,407.806332 250.68308,391.992225 238.261956,377.990763 C223.06642,360.863713 205.821939,341.336132 185.557957,332.223915 C177.371975,328.549633 164.450869,323.013716 156.147244,327.961748 C137.03028,339.317727 189.744082,415.086308 197.930064,430.508492" fill="#B2CD0D" transform="translate(898.000000, 1152.000000) rotate(-360.000000) translate(-898.000000, -1152.000000) "></path>
                <path d="M272.460994,394.897687 C305.117618,451.389571 328.641374,512.039163 350.056037,573.365364 C365.75162,618.256849 380.593757,663.795524 395.406464,708.951769 C420.225106,784.594607 438.118071,862.806596 458.277087,939.841874 C481.025873,1026.79093 507.855512,1113.31834 542.640849,1195.9626 C562.103373,1242.16808 584.145859,1288.67754 613.722224,1329.73491 C647.752212,1376.96021 696.555668,1408.80982 749.420356,1431.47129 C861.25139,1479.39281 984.638298,1501.23058 1103.97378,1521.12679 C1166.6384,1531.57009 1229.53845,1540.60134 1292.40908,1549.56394 C1340.94767,1556.48692 1393.10606,1559.04627 1438.79001,1578.06974 C1528.79438,1615.55776 1584.66085,1703.58547 1632.15961,1783.81748 C1647.12927,1809.12655 1663.4723,1833.61192 1680.76687,1857.45991 C1713.47254,1902.56713 1748.10092,1960.21611 1799.67072,1985.43692 C1804.57559,1987.85899 1809.8238,1990.27124 1814.82677,1991.32047 C1825.41148,1993.62486 1833.46528,1989.82017 1837.49708,1983.65225 C1837.85226,1983.15418 1838.17975,1982.63696 1838.47805,1982.10291 C1842.46081,1974.30721 1840.92068,1961.93214 1839.31188,1953.92071 C1837.7154,1946.80556 1835.30943,1939.89645 1832.14096,1933.32828 C1770.57504,1801.92901 1693.31352,1658.7136 1573.16383,1576.12817 C1519.39665,1539.17948 1459.37085,1532.60951 1394.68542,1524.20584 C1312.79372,1513.56643 1230.49981,1504.85877 1148.90239,1493.34663 C1044.1638,1478.56911 935.52093,1461.86963 837.354864,1420.0474 C741.71971,1379.29401 684.4014,1304.8475 646.761428,1211.24022 C606.32568,1110.67074 585.313218,1003.00178 557.796897,897.90197 C531.340029,797.09715 493.307668,701.087424 455.471501,604.30303 C434.459038,550.566609 412.720655,495.859401 383.958497,446.770984 C374.423373,430.692761 363.174715,415.693821 350.409187,402.036394 C326.610758,376.295864 300.53647,351.173106 270.606953,332.787013 C257.952389,325.010922 243.904842,316.32288 229.543382,312.478961 C212.866825,308.017269 233.03565,336.101413 235.497895,339.778632 C247.809118,358.164725 260.875692,376.001686 272.421755,394.897687" fill="#EAE9F9" transform="translate(1032.000000, 1152.000000) rotate(-360.000000) translate(-1032.000000, -1152.000000) "></path>
                <path d="M382.550514,406.428836 C422.375731,459.549206 454.171197,517.306213 480.799776,577.641308 C499.898625,620.939459 515.86989,666.443197 532.880415,710.211873 C561.479666,783.731485 575.578303,863.71102 592.206459,941.475165 C610.942547,1029.11054 631.217916,1118.01046 663.25849,1201.24446 C681.07297,1247.4834 701.495404,1292.56562 735.153693,1330.18806 C771.802306,1371.14338 818.078777,1399.04163 869.237808,1418.19594 C974.536388,1457.54363 1089.41381,1470.28703 1200.46753,1482.44227 C1258.67588,1488.84338 1316.99208,1494.29363 1375.19062,1500.79277 C1424.21231,1506.27243 1477.72438,1508.32118 1524.42244,1525.29931 C1616.82832,1558.84385 1689.88043,1640.85253 1752.02032,1713.39188 C1772.9918,1737.89842 1794.55153,1761.98344 1816.05245,1785.93123 C1867.15265,1842.7864 1914.69388,1919.50166 1991.39321,1944.16504 C1999.23668,1946.69412 2007.6488,1948.90951 2016.0217,1949 C2030.41447,1949.13497 2048.02306,1943.04754 2055.88614,1929.84342 C2056.42505,1928.96892 2056.90965,1928.0621 2057.33718,1927.1281 C2063.60215,1912.95352 2057.49405,1897.61242 2052.52325,1883.99659 C2049.49371,1875.70358 2044.10133,1867.1753 2038.89522,1860.07821 C1981.89281,1782.29446 1911.24275,1711.16669 1838.02396,1647.25364 C1760.84422,1579.80185 1677.63481,1516.19268 1587.79767,1468.32651 C1557.16892,1452.02476 1524.77539,1436.61505 1490.73474,1427.91033 C1459.03731,1419.81337 1424.84959,1418.49982 1392.309,1416.35304 C1317.86466,1411.45174 1243.03796,1411.21647 1168.64265,1408.51095 C1074.90339,1405.16826 976.477647,1401.14919 887.140527,1369.30049 C842.344511,1353.33203 801.029034,1327.49234 769.400243,1291.69319 C740.153905,1258.57996 726.682746,1214.65444 718.731429,1172.16991 C700.142406,1073.01645 708.015288,970.157616 702.446425,869.386734 C699.671798,819.128728 694.122543,768.615853 680.749427,719.975277 C668.454788,675.245945 647.630376,633.447595 626.688312,592.472665 C600.216602,540.636437 570.5977,489.074682 534.449109,444.325745 C522.288303,429.419348 508.547348,415.874724 493.46698,403.929169 C459.298865,376.638689 422.277688,350.338273 380.991625,334.987378 C366.069423,329.439098 349.509898,324.91029 334.234741,323.175227 C312.067135,320.646152 332.077787,346.230977 336.999564,352.387019 C351.70607,370.786528 367.932248,387.921499 382.550514,406.399428" fill="#FE9572" transform="translate(1192.000000, 1136.000000) rotate(-360.000000) translate(-1192.000000, -1136.000000) "></path>
                <path d="M512.307622,377.049904 C565.084289,425.843072 612.12436,479.742959 649.309258,540.543285 C673.726556,580.46586 697.359363,624.387553 709.813165,669.014973 C730.876762,744.488536 725.502995,827.803509 723.541767,907.060552 C721.374609,994.453057 718.236643,1083.28642 732.66148,1168.2971 C740.447559,1214.17914 757.588698,1256.51295 792.871204,1289.13321 C825.996357,1319.78332 866.093679,1340.35722 909.299549,1352.65843 C1000.24173,1378.53508 1098.14627,1376.31008 1191.80475,1375.26129 C1242.12007,1374.69279 1292.4452,1373.57539 1342.76052,1374.45755 C1388.0453,1375.25149 1436.33075,1375.02605 1480.53685,1385.92561 C1603.64318,1416.31107 1718.10049,1495.88177 1820.81004,1566.60148 C1857.03393,1591.54696 1893.65988,1616.34542 1929.56017,1641.67317 C1987.41642,1682.4779 2042.33083,1727.78164 2099.86347,1769.34111 C2149.59043,1805.27437 2203.56344,1837.55157 2264.10657,1849.9802 C2277.17816,1852.66589 2291.30882,1854.9791 2304.13525,1853.57745 C2322.12953,1851.6171 2348.81204,1845.04012 2351.79311,1822.32944 C2351.97433,1821.03091 2352.0367,1819.71858 2351.97943,1818.40873 C2350.99881,1795.9921 2329.50375,1775.72206 2315.13775,1760.9018 C2306.01522,1751.63215 2296.39421,1742.86619 2286.31749,1734.64288 C2182.97054,1648.91667 2065.39488,1576.53066 1948.14281,1509.20236 C1828.29212,1440.49202 1704.35227,1375.61416 1576.27423,1325.64478 C1504.94434,1297.81758 1436.58571,1278.85117 1359.3231,1279.5765 C1294.3672,1280.21361 1229.60743,1288.21185 1165.16145,1294.27914 C1085.2708,1301.80689 1000.07502,1310.05017 921.772964,1286.8396 C880.175302,1274.50899 841.421422,1250.73971 812.297174,1218.45271 C782.878743,1185.91086 774.474878,1141.10701 774.827899,1099.56715 C775.661421,1000.84381 810.463426,901.571566 828.398863,802.867828 C836.900789,756.08402 843.225752,708.153406 839.705346,660.526647 C836.283002,614.262333 819.622364,574.614208 798.901982,534.083924 C770.728931,478.919611 737.388042,425.137345 697.192658,378.794617 C683.623779,363.196726 668.385591,349.132188 651.750988,336.85288 C607.62334,304.19341 556.856934,275.248809 500.383352,270.602774 C482.545976,269.13251 461.649083,269.926452 445.361079,277.826672 C399.25259,300.18449 495.78427,362.425675 512.307622,377.049904" fill="#F75F68" transform="translate(1392.500000, 1062.000000) rotate(-360.000000) translate(-1392.500000, -1062.000000) "></path>
                <path d="M643.996761,279.471182 C705.210281,332.252449 762.30432,389.80795 805.460783,457.353071 C831.491977,498.10562 857.856652,544.81861 865.124593,592.129604 C877.600734,673.291585 851.304716,761.237489 831.109453,842.007336 C809.325248,929.110151 776.751926,1024.34975 785.991333,1112.18782 C790.542378,1155.64609 807.569564,1190.77152 843.37962,1219.11302 C874.948222,1243.9748 912.307988,1260.43101 951.967167,1266.94359 C1028.47181,1279.76638 1108.08567,1264.67901 1183.66833,1252.23856 C1262.94872,1239.23931 1345.0735,1223.4363 1425.68782,1232.43578 C1482.8407,1238.80796 1538.99315,1261.36548 1592.17368,1282.07017 C1672.327,1313.28405 1750.65598,1349.34079 1827.82759,1386.96607 C1877.10442,1410.97449 1926.48915,1435.38485 1975.13825,1460.6579 C2071.85777,1510.90009 2166.24291,1566.08318 2261.96199,1618.55074 C2332.65031,1657.30341 2407.66409,1699.47744 2486.94448,1716.18236 C2497.94937,1718.49595 2510.13127,1720.18213 2521.13617,1717.95677 C2544.40142,1713.24136 2535.07374,1683.18427 2528.32564,1670.7144 C2527.31466,1668.92313 2526.2012,1667.1916 2524.99082,1665.52842 C2504.65824,1636.61833 2473.41885,1614.55097 2444.64133,1595.16974 C2431.2236,1586.11144 2417.11928,1577.32763 2403.1817,1568.80852 C2270.76983,1487.85241 2131.35484,1416.19968 1990.86093,1349.0761 C1861.02864,1287.04047 1728.63638,1226.85767 1592.64448,1180.62504 C1525.27135,1157.7244 1462.02752,1140.05876 1390.32894,1145.4506 C1331.70481,1149.86211 1273.99285,1163.00841 1216.55552,1174.39011 C1144.68039,1188.63438 1067.65591,1203.97664 994.66264,1187.55602 C955.331409,1178.733 917.412571,1157.9989 889.07643,1129.24566 C857.591828,1097.30632 849.274401,1053.89706 851.128167,1011.95831 C855.502663,913.326748 899.590914,814.401086 929.800438,717.700786 C944.767884,669.831001 958.921242,620.696582 963.148614,570.513205 C966.875763,526.672598 959.146833,489.086533 940.118756,450.265244 C913.791283,396.524051 879.618589,346.992281 838.720684,303.293337 C824.349729,288.125391 809.017121,273.897467 792.817901,260.697756 C741.079186,218.219816 679.934325,180.829818 614.012827,164.536641 C597.387781,160.438838 575.073928,156.782186 559.08642,164.585658 C509.476104,188.799946 627.558072,265.717074 644.006569,279.471182" fill="#7158D1" transform="translate(1541.500000, 939.500000) rotate(-360.000000) translate(-1541.500000, -939.500000) "></path>
                <path d="M1429.441,60.3618885 C1488.10716,99.9003527 1505.38904,155.846936 1516.60608,222.392065 C1530.34522,303.677024 1550.78711,383.332947 1586.64628,457.149856 C1610.1991,505.716712 1641.35753,566.609283 1687.50143,598.463801 C1740.81913,635.264308 1819.92718,617.168272 1876.21842,600.956422 C1959.93889,576.844731 2046.76049,538.876421 2122.27672,492.919949 C2151.92384,474.882794 2168.74448,465.187087 2197.73408,486.24679 C2201.84601,489.190831 2207.06689,493.400809 2212.71956,490.446955 C2217.06702,488.180044 2220.5705,482.174201 2223.97585,476.560897 C2231.38332,464.15012 2239.75047,452.337914 2249.00072,441.232411 C2257.41104,431.2423 2268,418.612366 2268,404.696868 C2268,395.560529 2263.53478,389.132707 2259.75651,384.333921 C2253.18135,375.963032 2238.74543,351.05645 2224.97684,356.679567 C2213.33782,361.439099 2202.64092,371.507718 2191.61035,378.808938 C2162.62075,398.05315 2131.64878,414.902875 2100.89272,430.359088 C1997.56453,482.301776 1848.19056,544.941145 1743.58659,461.438342 C1670.36675,402.969697 1621.61241,325.708261 1604.47773,234.747222 C1593.00554,173.815397 1585.76305,113.060214 1553.29941,59.0861376 C1541.14027,38.8802062 1524.83975,22.4328331 1504.76097,11.2552926 C1484.27001,-0.128330744 1453.56302,-4.9565572 1431.57057,6.75091061 C1412.46335,16.9569177 1412.56148,47.7908355 1429.441,60.3618885 Z" fill="#0ABBAB" transform="translate(1842.500000, 310.000000) rotate(-360.000000) translate(-1842.500000, -310.000000) "></path>
                <path d="M1317.74422,80.0164729 C1303.03462,80.290881 1293.32629,95.3441231 1298.32755,108.280503 C1299.3013,110.638386 1300.76925,112.760405 1302.63256,114.503686 C1335.10154,143.982952 1362.06913,181.831663 1376.08247,223.120276 C1382.25069,241.31941 1387.23234,260.126163 1391.90018,278.893714 C1400.72594,314.341355 1409.83608,349.994802 1418.03423,385.579647 C1427.14437,425.104208 1435.68574,465.118784 1445.49214,504.437538 C1449.80695,521.656644 1454.40615,539.012954 1459.2211,556.075255 C1474.29353,608.996809 1492.82762,661.536152 1517.76528,710.282784 C1536.15227,746.24004 1558.03034,777.238351 1600.44301,785.745 C1643.23812,794.320252 1690.44611,784.38276 1731.40743,774.082658 C1844.76937,745.55402 1955.77778,692.906874 2064.37381,646.914123 C2083.6826,638.740683 2105.99215,626.833333 2125.96778,628.803191 C2142.63866,630.449639 2158.32889,639.044492 2174.2937,647.061127 C2177.64749,648.736976 2181.3347,650.461827 2184.90422,650.853839 C2187.51175,651.251645 2190.15773,650.431613 2192.08251,648.629173 C2195.41668,645.483281 2197.14261,638.740683 2198.49589,632.047086 C2200.68272,621.26677 2202.75186,610.39825 2204.77198,599.568932 C2205.48785,595.776221 2206.1841,592.032511 2206.91958,588.367203 C2209.68499,574.529197 2211.88162,559.064343 2207.56681,545.245937 C2204.95148,537.138666 2200.47494,529.755122 2194.49488,523.685304 C2182.66837,511.023332 2164.90898,489.119688 2144.48226,493.461216 C2129.13525,496.724712 2114.52372,505.054956 2100.28483,511.856356 C2068.28656,527.125205 2035.77836,541.580629 2003.58396,556.271261 C1965.24095,573.774575 1926.24091,590.797675 1886.88784,605.184497 C1826.8727,627.097941 1754.39362,652.010273 1689.11244,640.465534 C1632.03922,630.322236 1594.79452,579.04713 1566.16965,533.907004 C1528.42483,474.389856 1506.47812,406.973676 1491.01343,337.744442 C1483.84496,305.687701 1478.66718,272.690132 1471.33199,240.897998 C1464.96764,213.300388 1456.50472,185.830181 1443.67796,161.133455 C1433.85996,142.086545 1420.21215,125.270951 1403.58941,111.740005 C1380.8778,93.1684592 1347.40857,79.4578565 1317.74422,80.0164729 Z" fill="#FFD300" transform="translate(1753.500000, 434.500000) rotate(-360.000000) translate(-1753.500000, -434.500000) "></path>
                <path d="M1196.10352,127.277529 C1186.0127,126.297566 1167.90224,127.189333 1168,142.163174 C1168.09666,143.95155 1168.6879,145.678223 1169.70838,147.151188 C1192.93296,185.94794 1225.07045,218.139738 1243.24963,259.846982 C1251.62265,279.064064 1258.95518,299.045519 1265.75765,318.919177 C1278.51841,356.520374 1290.70003,395.170131 1301.52704,433.114315 C1313.65958,475.625128 1322.32708,519.988073 1331.4363,563.694441 C1335.59828,583.617098 1339.74061,603.588752 1344.04001,623.47221 C1357.18359,684.141746 1371.96645,744.987675 1392.82538,803.128905 C1407.32357,843.542597 1422.52851,893.177744 1459.36785,919.675955 C1497.48326,947.114931 1548.80115,941.019559 1591.88345,934.267611 C1738.8776,911.189472 1876.44843,841.935457 2021.75424,807.695535 C2050.56411,800.914188 2083.15313,791.124353 2111.91392,798.385882 C2135.55078,804.363659 2158.1177,817.759759 2180.81222,827.255605 C2185.17051,829.078337 2189.93126,830.656078 2194.319,830.891269 C2197.41103,831.057863 2200.26747,830.313091 2202.32883,827.784785 C2205.13619,824.354913 2205.98037,817.436371 2206,810.341436 C2206,798.513277 2205.34233,786.596922 2204.23313,774.758964 C2203.8503,770.623518 2203.34969,766.507672 2202.88834,762.519221 C2201.17054,747.52578 2198.38281,731.669972 2191.58034,718.195475 C2187.17662,709.833445 2181.36226,702.291674 2174.39258,695.901307 C2155.25143,678.457958 2134.52992,659.289874 2106.66238,660.622624 C2087.03044,661.602587 2067.98746,668.668124 2049.49417,674.587103 C2013.00821,686.258467 1977.09157,698.909795 1941.51849,712.991869 C1899.37853,729.651247 1857.10115,747.212192 1814.63726,762.764212 C1747.22118,787.439691 1670.3425,815.339249 1597.04665,812.673749 C1523.16184,809.988649 1493.23294,749.95609 1465.18872,691.207282 C1426.51379,610.164307 1403.71129,522.085194 1384.18733,433.917885 C1375.98118,396.875267 1367.2057,359.803251 1357.81182,323.182018 C1350.37131,294.165301 1342.03755,264.893793 1329.86575,238.140792 C1320.95406,218.504783 1308.88831,200.454492 1294.14543,184.703386 C1269.16379,157.999383 1231.39193,130.580006 1196.10352,127.277529 Z" fill="#FE9572" transform="translate(1687.000000, 533.500000) rotate(-360.000000) translate(-1687.000000, -533.500000) "></path>
                <path d="M1067.67551,152.948473 C1054.79581,147.708359 1036.71715,140.685626 1023.1508,145.749437 C1022.13004,146.066086 1021.356,146.902431 1021.12026,147.943429 C1019.15839,163.516853 1041.71993,183.252984 1050.84264,194.281711 C1068.23464,215.232373 1086.28387,236.104679 1100.87039,258.926112 C1113.62257,278.858135 1125.66847,299.671673 1136.56667,320.63213 C1157.63693,361.3998 1175.50763,403.738339 1190.0179,447.266594 C1204.83985,491.596981 1216.14023,534.438589 1221.50596,581.080503 C1223.8602,601.570819 1225.58665,622.413741 1227.14634,643.08036 C1231.84503,705.148779 1234.72898,768.284811 1246.47079,828.942807 C1255.29922,874.49752 1267.8552,924.861385 1292.91813,965.087833 C1319.57998,1007.89026 1363.54555,1030.41786 1410.97383,1035.609 C1582.88294,1054.51259 1758.03895,954.010133 1930.17367,936.16436 C1987.88217,930.179856 2044.32525,943.667029 2097.05058,966.586407 C2148.31432,988.859342 2197.31209,1022.82704 2250.20419,1042.06364 C2256.41351,1044.3164 2261.82828,1045.57991 2265.44794,1044.73757 C2267.97875,1044.1401 2269.42073,1042.18118 2268.89103,1037.5973 C2268.27304,1032.22006 2264.79071,1023.28738 2260.71002,1013.97271 C2254.06908,998.810662 2246.97691,983.6682 2239.76702,968.780399 C2237.29506,963.696998 2234.86234,958.799695 2232.48847,954.08849 C2224.38594,937.80006 2216.18531,920.688883 2205.35577,906.516088 C2198.63751,897.534092 2191.00421,889.272201 2182.57843,881.863064 C2155.75963,858.777177 2126.66505,835.926361 2090.08593,832.498249 C2028.75779,826.748815 1957.3358,847.483996 1899.90198,864.036881 C1854.61214,877.093091 1809.3125,892.323703 1764.08152,906.153687 C1688.8535,929.08286 1609.09356,953.020878 1529.57885,954.206025 C1493.4902,954.744728 1459.02991,946.811097 1432.80947,920.649704 C1407.56017,895.457977 1394.0821,859.57054 1380.66289,827.522589 C1340.57202,731.780314 1315.53852,630.229837 1290.15189,529.325804 C1279.36159,486.307894 1265.83447,443.956017 1253.27849,401.398453 C1243.82226,369.281939 1234.0129,336.842204 1220.96644,306.478925 C1211.84927,285.104337 1200.16224,264.916338 1186.16282,246.359632 C1155.74398,206.182157 1113.84818,171.734528 1067.67551,152.948473 Z" fill="#EAE9F9" transform="translate(1645.000000, 594.500000) rotate(-360.000000) translate(-1645.000000, -594.500000) "></path>
                <path d="M913.663303,138.487064 C896.186996,129.236032 876.288327,119.642006 856.00718,117.24105 C854.115255,117 852.202721,116.935403 850.299429,117.074453 C831.185331,117.858439 869.658706,152.353812 873.150045,155.626953 C895.21609,176.422175 918.66494,196.080619 939.338373,218.061619 C957.452144,237.32807 975.10498,257.574502 991.384817,278.330525 C1022.35574,317.843408 1049.70783,360.903826 1070.82258,406.375001 C1091.93733,451.846175 1098.96905,495.033991 1095.99748,544.846487 C1094.72256,566.308097 1091.92753,588.249899 1088.65194,609.67231 C1078.62906,675.027323 1062.4669,740.784129 1055.00368,806.29594 C1049.60975,853.531082 1049.58033,901.138618 1058.48521,948.452159 C1068.44925,1001.4594 1094.26162,1042.53045 1139.81575,1067.88259 C1229.57061,1117.74409 1346.47161,1094.6753 1445.6119,1072.57671 C1536.81822,1052.26167 1635.87024,1014.53236 1730.38157,1021.12764 C1845.66439,1029.17329 1961.76121,1085.97306 2063.46116,1135.92276 C2123.54945,1165.43002 2182.86298,1197.33824 2242.17651,1228.78587 C2288.83884,1253.54022 2336.03075,1281.24432 2384.80162,1299.60918 C2393.45151,1302.87252 2403.17037,1306.85125 2412.60483,1307 C2417.01804,1307.06685 2419.8425,1305.12648 2418.77352,1299.87378 C2417.00823,1291.20094 2411.43778,1282.63589 2407.00496,1274.96263 C2396.73689,1257.26415 2384.61528,1240.09486 2372.17003,1223.62136 C2367.71759,1217.74147 2363.30438,1212.08697 2358.9304,1206.65787 C2343.89607,1187.96961 2327.95948,1169.58514 2310.33607,1153.54284 C2296.84288,1141.31098 2282.66156,1129.85921 2267.86139,1119.24346 C2199.14282,1069.81316 2124.67727,1027.18393 2045.98485,997.657066 C2003.29441,981.624557 1958.09334,968.463396 1911.9606,964.93546 C1870.49605,961.770117 1827.92329,968.620193 1787.76309,976.901043 C1742.35607,986.269673 1696.96867,999.019241 1651.82645,1010.73003 C1575.92906,1030.43747 1497.96237,1049.76272 1418.89728,1049.31193 C1381.28693,1049.09633 1343.06854,1041.71707 1311.76418,1019.91246 C1278.06687,996.392889 1259.51178,962.818698 1245.83083,926.049766 C1206.8671,821.250468 1199.01159,708.209521 1188.03741,595.854561 C1182.71214,541.396949 1173.10115,490.575072 1154.95796,439.126006 C1142.20869,403.052861 1127.58625,366.999315 1109.78631,333.425125 C1097.4178,310.225586 1083.13144,288.09905 1067.07625,267.276326 C1026.05303,213.945694 972.319754,169.523101 913.663303,138.487064 Z" fill="#1DAACC" transform="translate(1632.000000, 712.000000) rotate(-360.000000) translate(-1632.000000, -712.000000) "></path>
                <path d="M984.232997,536.790632 C976.620143,627.932834 936.88811,717.859806 907.58451,805.483722 C878.859722,891.382797 843.120513,1004.07572 893.369272,1082.50701 C936.603609,1149.98164 1035.74729,1167.02425 1114.64236,1162.00653 C1195.9802,1156.82221 1275.14996,1134.37967 1354.61402,1117.81727 C1391.61877,1110.10448 1428.9865,1103.23451 1466.75646,1100.74525 C1509.49047,1097.94239 1548.5652,1104.66535 1589.57259,1116.60204 C1740.83881,1160.7031 1885.84602,1231.40201 2025.98727,1301.69911 C2133.97011,1355.88462 2240.62854,1413.51981 2347.76768,1469.85157 C2388.74563,1491.41209 2429.76283,1512.97261 2471.58447,1532.89649 C2496.62055,1544.80378 2523.27535,1558.73972 2550.74441,1563.48303 C2557.69997,1564.68846 2563.34094,1563.94364 2563.84127,1559.56294 C2566.3331,1537.74761 2538.87385,1508.06269 2524.52127,1491.48069 C2500.28964,1463.48142 2470.17177,1440.08825 2439.93619,1418.38073 C2257.13941,1287.11636 2047.17769,1180.97979 1835.12636,1102.5779 C1768.61199,1077.9891 1693.54298,1048.15718 1621.39745,1049.40181 C1561.28927,1050.44064 1501.85799,1064.86659 1443.56472,1078.26351 C1317.01084,1107.35061 1090.01831,1160.92851 1038.17046,1001.62566 C1010.58367,916.853612 1023.21944,818.684641 1036.5125,728.199055 C1049.00111,643.084 1074.21379,548.668519 1057.65387,463.935673 C1044.46872,396.461043 999.645101,330.005638 955.233518,278.074183 C903.846756,218.008533 837.33239,170.369582 765.77549,136.891973 C745.781939,127.542547 722.894326,117.771711 700.399128,117.036694 C662.138652,115.782263 693.384707,147.035218 706.285355,158.031084 C731.527459,179.532803 760.242436,196.928223 785.74942,217.812528 C848.830154,269.440175 907.309819,328.143593 948.111183,398.381889 C974.108686,443.168971 988.569184,484.868978 984.232997,536.790632 Z" fill="#EAE9F9" transform="translate(1623.000000, 840.500000) rotate(-360.000000) translate(-1623.000000, -840.500000) "></path>
            </g>
        </g>
    </g>
</svg>