<?xml version="1.0" encoding="UTF-8"?>
<svg width="1600px" height="1200px" viewBox="0 0 1600 1200" version="1.1" xmlns="http://www.w3.org/2000/svg" xmlns:xlink="http://www.w3.org/1999/xlink">
    <!-- Generator: Sketch 55.2 (78181) - https://sketchapp.com -->
    <title>Doubs</title>
    <desc>Created with Sketch.</desc>
    <g id="Patterns" stroke="none" stroke-width="1" fill="none" fill-rule="evenodd">
        <g id="Doubs" fill-rule="nonzero">
            <g transform="translate(-2340.000000, -1578.000000)" id="Shape">
                <path d="M3536.17828,2368.75435 C3083.69103,2394.80536 3279.87894,2965.06174 3670,3161 C3324.89223,3161 2528,2835.91795 2528,2438.40894 C2528,2040.89992 2566.208,1649 2911.30991,1649 C3256.41768,1649 3536.17828,1971.24533 3536.17828,2368.75435 Z" fill="#0AB7E0"></path>
                <path d="M4293,1444.25024 C4293,1904.99405 4035.97462,2074 3759.17986,2074 C3482.3851,2074 3258,1700.49357 3258,1239.74976 C3258,779.005951 3515.01952,610 3791.82014,610 C4068.6149,610 4293,983.506431 4293,1444.25024 Z" fill="#E16197"></path>
                <path d="M3284.9363,506.038941 C3917.61468,569.323633 4155.34704,1388.18345 4110.77647,1836.04784 C4066.20591,2283.91223 3811.81059,1776.56644 3179.13221,1713.28175 C2546.45384,1649.99706 2651.09417,1498.42594 2695.66473,1050.56155 C2245.97658,1145.67421 2652.25793,442.746673 3284.9363,506.038941 Z" fill="#2E39A9"></path>
                <path d="M3589.18896,999.922335 C3934.4545,1034.36896 4033.84682,1705.68024 4009.52113,1949.42846 C3985.19545,2193.17668 3846.37046,1917.0594 3501.10493,1882.61277 C3155.83939,1848.172 2970.44579,1734.24822 2994.76562,1490.5 C3019.09131,1246.75178 3243.92342,965.48156 3589.18896,999.922335 Z" fill="#F4F3EF" opacity="0.1"></path>
                <path d="M3555.02938,1179.65668 C3781.63155,1202.26972 3606.97928,1744.91297 3585.53572,1959.83346 C3564.09801,2174.75395 3478.82096,1934.99129 3252.21294,1912.37824 C3025.61078,1889.75934 2707.59167,1799.57131 2729.02938,1584.65668 C2750.46709,1369.73619 3328.42137,1157.04363 3555.02938,1179.65668 Z" fill="#0AB7E0"></path>
                <path d="M4043.56369,1918.059 C4278.96672,2342.46469 4033.34684,2972.36986 3754.57193,3127.98606 C3475.79116,3283.59641 3081.28379,2820.9652 2883.60001,2467.09686 C2685.92208,2113.22852 3055.96987,1369.29605 3496.83928,1478.91294 C3726.90568,1536.11962 3928.60363,1710.79886 4043.56369,1918.059 Z" fill="#9844AF"></path>
                <path d="M4021.93901,2529.75238 C4034.71738,2822.14218 3931.13763,3029.55204 3761.67492,3124.19611 C3592.2122,3218.84018 3345.13642,2956.02849 3232.2335,2722.25019 C2991.38293,2223.53409 3315.27533,1558.97561 3668.03325,1827.89621 C3884.47492,1992.89517 4010.03908,2257.38784 4021.93901,2529.75238 Z" fill="#F4F3EF" opacity="0.1"></path>
                <path d="M4250.17294,2387.10602 C4262.9445,2679.55885 4125.6064,2966.60447 3990.04766,2981.67791 C3803.03982,3002.4632 3750.63665,2774.0593 3745.15226,2585.81413 C3739.52153,2392.54839 3891.33445,1894.02354 3990.04766,2326.58379 C4062.9778,2646.15475 4238.27936,2114.68275 4250.17294,2387.10602 Z" fill="#E2164B"></path>
                <path d="M3643.17769,2432.95667 C3466.42383,2773.6564 2721.04973,3200.95131 2021.99837,3029 C1322.94702,2857.04869 2339.286,2766.46197 2339.286,2369.23808 C2339.286,1972.01419 2563.69581,1650 2908.25708,1650 C3056.43491,1650 3192.53211,1709.49913 3299.55041,1808.97606 C3520.87282,1950.41799 3752.27765,2222.66408 3643.17769,2432.95667 Z" fill="#FF612E"></path>
                <path d="M2543.63582,2518.84557 C2145.16551,2619.69964 1562.94565,2582.86181 1671.18097,2279.4114 C1850.16663,1777.61875 2283.27205,1442.05632 2819,1509.64298 C3029.7879,1536.23119 3231.49617,1701.31755 3331.94405,1854.85313 C3562.95489,2207.95548 3151.63574,2364.95533 2543.63582,2518.84557 Z" fill="#FFCD00"></path>
                <path d="M2417.45789,1200.18191 C2814.38238,1274.5566 3356.92746,1597.35509 3122.58898,2071.46755 C2992.64058,2334.37851 2411.06718,2555.97026 2209.56718,2465.97026 C1875.56156,2316.78661 1777.20593,1080.21632 2417.45789,1200.18191 Z" fill="#B2CD0D"></path>
                <path d="M2758,1754.99031 C2758,2165.35772 2264.69158,2769 1869.81059,2769 C1474.92374,2769 1328,2165.35772 1328,1754.99031 C1328,1344.62876 1474.92374,1011 1869.81059,1011 C2264.69158,1011 2758,1344.62876 2758,1754.99031 Z" fill="#0AB7E0" transform="translate(2043.000000, 1890.000000) rotate(35.000000) translate(-2043.000000, -1890.000000) "></path>
                <path d="M2504,1694.1445 C2504,2104.04672 2100.91061,2707 1778.24478,2707 C1455.57895,2707 1115,2238.90222 1115,1829 C1115,1419.10363 1455.57895,951 1778.24478,951 C2100.91061,951 2504,1284.24813 2504,1694.1445 Z" fill="#2E39A9" transform="translate(1809.500000, 1829.000000) rotate(47.000000) translate(-1809.500000, -1829.000000) "></path>
            </g>
        </g>
    </g>
</svg>