<?xml version="1.0" encoding="UTF-8"?>
<svg width="1600px" height="1200px" viewBox="0 0 1600 1200" version="1.1" xmlns="http://www.w3.org/2000/svg" xmlns:xlink="http://www.w3.org/1999/xlink">
    <!-- Generator: Sketch 55.2 (78181) - https://sketchapp.com -->
    <title>Oreti</title>
    <desc>Created with Sketch.</desc>
    <defs>
        <rect id="path-1" x="0" y="0" width="1600" height="1200"></rect>
        <path d="M0,0.74124485 L367,0.74124485 L367,342.258853 C367,393.007274 325.922126,434.146998 275.25,434.146998 C224.577874,434.146998 183.5,475.286722 183.5,526.035144 L183.5,636.964954 C183.5,738.461797 101.344252,820.741245 0,820.741245 L0,0.74124485 Z" id="path-3"></path>
        <path d="M91.90843,0 C142.668054,0 183.81686,41.1115019 183.81686,91.8251095 L183.81686,535.646472 C183.81686,586.36008 142.668054,627.471582 91.90843,627.471582 C41.1488057,627.471582 0,586.36008 0,535.646472 L0,91.8251095 C0,41.1115019 41.1488057,0 91.90843,0 Z" id="path-5"></path>
        <ellipse id="path-7" cx="174.739056" cy="174.685548" rx="174.739056" ry="174.685548"></ellipse>
    </defs>
    <g id="Patterns" stroke="none" stroke-width="1" fill="none" fill-rule="evenodd">
        <g id="Oreti">
            <g>
                <mask id="mask-2" fill="white">
                    <use xlink:href="#path-1"></use>
                </mask>
                <use id="Background" fill="#F2F2F2" xlink:href="#path-1"></use>
                <path d="M155,-182 C205.810197,-182 247,-140.853877 247,-90.097561 L247,354.097561 C247,404.853877 205.810197,446 155,446 L63,446 L63,-90.097561 C63,-140.853877 104.189803,-182 155,-182 Z" id="Shape" fill="#F2F2F2" mask="url(#mask-2)"></path>
                <path d="M706,94 C756.810197,94 798,135.148396 798,185.907514 L798,1000.82081 C798,1051.57993 756.810197,1092.72832 706,1092.72832 C672.126535,1092.72832 641.459869,1113.15222 614,1154 L614,185.907514 C614,135.148396 655.189803,94 706,94 Z" id="Shape" fill="#75CBB3" mask="url(#mask-2)"></path>
                <path d="M706,-310 C756.810197,-310 798,-268.837865 798,-218.061798 L798,597.123596 C798,647.899663 756.810197,689.061798 706,689.061798 C672.126535,689.061798 641.459869,719.707865 614,781 L614,-218.061798 C614,-268.837865 655.189803,-310 706,-310 Z" id="Shape" fill="#F2F2F2" mask="url(#mask-2)"></path>
                <path d="M155,814 C205.810197,814 247,855.146123 247,905.902439 L247,1350.09756 C247,1400.85388 205.810197,1442 155,1442 L63,1442 L63,905.902439 C63,855.146123 104.189803,814 155,814 Z" id="Shape" fill="#DC2249" mask="url(#mask-2)"></path>
                <path d="M614,812.5 L247,812.5 L247,-50.7333094 L396.858333,-50.7333094 L396.858333,-56 L614,-56 L614,812.5 Z M614,815.5 L614,842.5 L247,842.5 L247,815.5 L614,815.5 Z M614,847.5 L614,872 L247,872 L247,847.5 L614,847.5 Z M614,880 L614,901.5 L247,901.5 L247,880 L614,880 Z M614,912.5 L614,930.5 L247,930.5 L247,912.5 L614,912.5 Z M614,943.5 L614,961 L247,961 L247,943.5 L614,943.5 Z M614,977 L614,988.967728 C614,989.14527 613.999499,989.322694 613.998498,989.5 L247.001502,989.5 C247.000501,989.322694 247,989.14527 247,988.967728 L247,977 L614,977 Z M611.929486,1008.5 C611.120004,1012.2572 610.081813,1015.92899 608.83026,1019.5 L252.169737,1019.5 C250.918187,1015.92899 249.879996,1012.2572 249.070514,1008.5 L611.929486,1008.5 Z M598.279195,1040.5 C596.280737,1043.46084 594.114899,1046.29873 591.79531,1049 L269.20469,1049 C266.885101,1046.29873 264.719263,1043.46084 262.720805,1040.5 L598.279195,1040.5 Z M559.720851,1073.00001 C548.279925,1078.14093 535.597824,1081 522.25,1081 L338.75,1081 C325.402176,1081 312.720075,1078.14093 301.279149,1073.00001 L559.72088,1073 Z" id="Shape" fill="#7A4865" mask="url(#mask-2)"></path>
                <g id="Shape" mask="url(#mask-2)">
                    <g transform="translate(247.000000, -57.000000)">
                        <mask id="mask-4" fill="white">
                            <use xlink:href="#path-3"></use>
                        </mask>
                        <use id="Shape" stroke="none" fill="#F6CB51" fill-rule="evenodd" xlink:href="#path-3"></use>
                    </g>
                </g>
                <path d="M1166,445 L1166,973.123596 C1166,1023.89966 1124.8102,1065.0618 1074,1065.0618 C1040.12654,1065.0618 1009.45987,1095.70787 982,1157 L982,366.611842 C988.578186,410.967407 1026.81472,445 1073,445 L1166,445 Z" id="Shape" fill="#3D2C42" mask="url(#mask-2)"></path>
                <g id="Shape" mask="url(#mask-2)">
                    <g transform="translate(982.000000, 629.000000)">
                        <mask id="mask-6" fill="white">
                            <use xlink:href="#path-5"></use>
                        </mask>
                        <use id="Shape" stroke="none" fill="#DC2249" fill-rule="evenodd" xlink:href="#path-5"></use>
                    </g>
                </g>
                <path d="M154,688.741379 C145.163444,688.741379 138,681.52776 138,672.62931 C138,663.73086 145.163444,656.517241 154,656.517241 C162.836556,656.517241 170,663.73086 170,672.62931 C170,681.52776 162.836556,688.741379 154,688.741379 Z M154,767 C145.163444,767 138,759.786381 138,750.887931 C138,741.989481 145.163444,734.775862 154,734.775862 C162.836556,734.775862 170,741.989481 170,750.887931 C170,759.786381 162.836556,767 154,767 Z M154,532.224138 C145.163444,532.224138 138,525.010519 138,516.112069 C138,507.213619 145.163444,500 154,500 C162.836556,500 170,507.213619 170,516.112069 C170,525.010519 162.836556,532.224138 154,532.224138 Z M154,610.482759 C145.163444,610.482759 138,603.26914 138,594.37069 C138,585.47224 145.163444,578.258621 154,578.258621 C162.836556,578.258621 170,585.47224 170,594.37069 C170,603.26914 162.836556,610.482759 154,610.482759 Z" id="Shape" fill="#75CBB3" mask="url(#mask-2)"></path>
                <g id="Shape" mask="url(#mask-2)">
                    <g transform="translate(624.000000, -44.000000)">
                        <mask id="mask-8" fill="white">
                            <use xlink:href="#path-7"></use>
                        </mask>
                        <use id="Shape" stroke="none" fill="#75CBB3" fill-rule="evenodd" xlink:href="#path-7"></use>
                        <path d="M542.610752,-12.258635 L542.610752,1031.63054 C542.610752,1082.42302 501.43531,1123.59847 450.642828,1123.59847 L266.70698,1123.59847 C215.914498,1123.59847 174.739056,1082.42302 174.739056,1031.63054 L174.739056,-12.258635 L542.610752,-12.258635 Z" id="Shape" stroke="none" fill="#F2F2F2" fill-rule="evenodd" mask="url(#mask-8)"></path>
                        <rect id="Shape" stroke="none" fill="#7A4865" fill-rule="evenodd" mask="url(#mask-8)" x="174.739056" y="173.153219" width="174.739056" height="297.271898"></rect>
                    </g>
                </g>
                <path d="M1394.50407,781.506494 C1392.02103,781.506494 1390.00813,779.503797 1390.00813,777.033345 C1390.00813,774.562893 1392.02103,772.560197 1394.50407,772.560197 C1396.9871,772.560197 1399,774.562893 1399,777.033345 C1399,779.503797 1396.9871,781.506494 1394.50407,781.506494 Z M1394.50407,750.194454 C1392.02103,750.194454 1390.00813,748.191757 1390.00813,745.721306 C1390.00813,743.250854 1392.02103,741.248157 1394.50407,741.248157 C1396.9871,741.248157 1399,743.250854 1399,745.721306 C1399,748.191757 1396.9871,750.194454 1394.50407,750.194454 Z M1394.50407,718.882415 C1392.02103,718.882415 1390.00813,716.879718 1390.00813,714.409266 C1390.00813,711.938815 1392.02103,709.936118 1394.50407,709.936118 C1396.9871,709.936118 1399,711.938815 1399,714.409266 C1399,716.879718 1396.9871,718.882415 1394.50407,718.882415 Z M1394.50407,687.570376 C1392.02103,687.570376 1390.00813,685.567679 1390.00813,683.097227 C1390.00813,680.626775 1392.02103,678.624079 1394.50407,678.624079 C1396.9871,678.624079 1399,680.626775 1399,683.097227 C1399,685.567679 1396.9871,687.570376 1394.50407,687.570376 Z M1394.50407,656.258336 C1392.02103,656.258336 1390.00813,654.255639 1390.00813,651.785188 C1390.00813,649.314736 1392.02103,647.312039 1394.50407,647.312039 C1396.9871,647.312039 1399,649.314736 1399,651.785188 C1399,654.255639 1396.9871,656.258336 1394.50407,656.258336 Z M1394.50407,624.946297 C1392.02103,624.946297 1390.00813,622.9436 1390.00813,620.473148 C1390.00813,618.002697 1392.02103,616 1394.50407,616 C1396.9871,616 1399,618.002697 1399,620.473148 C1399,622.9436 1396.9871,624.946297 1394.50407,624.946297 Z M1364.95935,781.506494 C1362.47631,781.506494 1360.46341,779.503797 1360.46341,777.033345 C1360.46341,774.562893 1362.47631,772.560197 1364.95935,772.560197 C1367.44239,772.560197 1369.45528,774.562893 1369.45528,777.033345 C1369.45528,779.503797 1367.44239,781.506494 1364.95935,781.506494 Z M1364.95935,750.194454 C1362.47631,750.194454 1360.46341,748.191757 1360.46341,745.721306 C1360.46341,743.250854 1362.47631,741.248157 1364.95935,741.248157 C1367.44239,741.248157 1369.45528,743.250854 1369.45528,745.721306 C1369.45528,748.191757 1367.44239,750.194454 1364.95935,750.194454 Z M1364.95935,718.882415 C1362.47631,718.882415 1360.46341,716.879718 1360.46341,714.409266 C1360.46341,711.938815 1362.47631,709.936118 1364.95935,709.936118 C1367.44239,709.936118 1369.45528,711.938815 1369.45528,714.409266 C1369.45528,716.879718 1367.44239,718.882415 1364.95935,718.882415 Z M1364.95935,687.570376 C1362.47631,687.570376 1360.46341,685.567679 1360.46341,683.097227 C1360.46341,680.626775 1362.47631,678.624079 1364.95935,678.624079 C1367.44239,678.624079 1369.45528,680.626775 1369.45528,683.097227 C1369.45528,685.567679 1367.44239,687.570376 1364.95935,687.570376 Z M1364.95935,656.258336 C1362.47631,656.258336 1360.46341,654.255639 1360.46341,651.785188 C1360.46341,649.314736 1362.47631,647.312039 1364.95935,647.312039 C1367.44239,647.312039 1369.45528,649.314736 1369.45528,651.785188 C1369.45528,654.255639 1367.44239,656.258336 1364.95935,656.258336 Z M1364.95935,624.946297 C1362.47631,624.946297 1360.46341,622.9436 1360.46341,620.473148 C1360.46341,618.002697 1362.47631,616 1364.95935,616 C1367.44239,616 1369.45528,618.002697 1369.45528,620.473148 C1369.45528,622.9436 1367.44239,624.946297 1364.95935,624.946297 Z M1335.41463,781.506494 C1332.9316,781.506494 1330.9187,779.503797 1330.9187,777.033345 C1330.9187,774.562893 1332.9316,772.560197 1335.41463,772.560197 C1337.89767,772.560197 1339.91057,774.562893 1339.91057,777.033345 C1339.91057,779.503797 1337.89767,781.506494 1335.41463,781.506494 Z M1335.41463,750.194454 C1332.9316,750.194454 1330.9187,748.191757 1330.9187,745.721306 C1330.9187,743.250854 1332.9316,741.248157 1335.41463,741.248157 C1337.89767,741.248157 1339.91057,743.250854 1339.91057,745.721306 C1339.91057,748.191757 1337.89767,750.194454 1335.41463,750.194454 Z M1335.41463,718.882415 C1332.9316,718.882415 1330.9187,716.879718 1330.9187,714.409266 C1330.9187,711.938815 1332.9316,709.936118 1335.41463,709.936118 C1337.89767,709.936118 1339.91057,711.938815 1339.91057,714.409266 C1339.91057,716.879718 1337.89767,718.882415 1335.41463,718.882415 Z M1335.41463,687.570376 C1332.9316,687.570376 1330.9187,685.567679 1330.9187,683.097227 C1330.9187,680.626775 1332.9316,678.624079 1335.41463,678.624079 C1337.89767,678.624079 1339.91057,680.626775 1339.91057,683.097227 C1339.91057,685.567679 1337.89767,687.570376 1335.41463,687.570376 Z M1335.41463,656.258336 C1332.9316,656.258336 1330.9187,654.255639 1330.9187,651.785188 C1330.9187,649.314736 1332.9316,647.312039 1335.41463,647.312039 C1337.89767,647.312039 1339.91057,649.314736 1339.91057,651.785188 C1339.91057,654.255639 1337.89767,656.258336 1335.41463,656.258336 Z M1335.41463,624.946297 C1332.9316,624.946297 1330.9187,622.9436 1330.9187,620.473148 C1330.9187,618.002697 1332.9316,616 1335.41463,616 C1337.89767,616 1339.91057,618.002697 1339.91057,620.473148 C1339.91057,622.9436 1337.89767,624.946297 1335.41463,624.946297 Z M1304.58537,781.506494 C1302.10233,781.506494 1300.08943,779.503797 1300.08943,777.033345 C1300.08943,774.562893 1302.10233,772.560197 1304.58537,772.560197 C1307.0684,772.560197 1309.0813,774.562893 1309.0813,777.033345 C1309.0813,779.503797 1307.0684,781.506494 1304.58537,781.506494 Z M1304.58537,750.194454 C1302.10233,750.194454 1300.08943,748.191757 1300.08943,745.721306 C1300.08943,743.250854 1302.10233,741.248157 1304.58537,741.248157 C1307.0684,741.248157 1309.0813,743.250854 1309.0813,745.721306 C1309.0813,748.191757 1307.0684,750.194454 1304.58537,750.194454 Z M1304.58537,718.882415 C1302.10233,718.882415 1300.08943,716.879718 1300.08943,714.409266 C1300.08943,711.938815 1302.10233,709.936118 1304.58537,709.936118 C1307.0684,709.936118 1309.0813,711.938815 1309.0813,714.409266 C1309.0813,716.879718 1307.0684,718.882415 1304.58537,718.882415 Z M1304.58537,687.570376 C1302.10233,687.570376 1300.08943,685.567679 1300.08943,683.097227 C1300.08943,680.626775 1302.10233,678.624079 1304.58537,678.624079 C1307.0684,678.624079 1309.0813,680.626775 1309.0813,683.097227 C1309.0813,685.567679 1307.0684,687.570376 1304.58537,687.570376 Z M1304.58537,656.258336 C1302.10233,656.258336 1300.08943,654.255639 1300.08943,651.785188 C1300.08943,649.314736 1302.10233,647.312039 1304.58537,647.312039 C1307.0684,647.312039 1309.0813,649.314736 1309.0813,651.785188 C1309.0813,654.255639 1307.0684,656.258336 1304.58537,656.258336 Z M1304.58537,624.946297 C1302.10233,624.946297 1300.08943,622.9436 1300.08943,620.473148 C1300.08943,618.002697 1302.10233,616 1304.58537,616 C1307.0684,616 1309.0813,618.002697 1309.0813,620.473148 C1309.0813,622.9436 1307.0684,624.946297 1304.58537,624.946297 Z M1275.04065,781.506494 C1272.55761,781.506494 1270.54472,779.503797 1270.54472,777.033345 C1270.54472,774.562893 1272.55761,772.560197 1275.04065,772.560197 C1277.52369,772.560197 1279.53659,774.562893 1279.53659,777.033345 C1279.53659,779.503797 1277.52369,781.506494 1275.04065,781.506494 Z M1275.04065,750.194454 C1272.55761,750.194454 1270.54472,748.191757 1270.54472,745.721306 C1270.54472,743.250854 1272.55761,741.248157 1275.04065,741.248157 C1277.52369,741.248157 1279.53659,743.250854 1279.53659,745.721306 C1279.53659,748.191757 1277.52369,750.194454 1275.04065,750.194454 Z M1275.04065,718.882415 C1272.55761,718.882415 1270.54472,716.879718 1270.54472,714.409266 C1270.54472,711.938815 1272.55761,709.936118 1275.04065,709.936118 C1277.52369,709.936118 1279.53659,711.938815 1279.53659,714.409266 C1279.53659,716.879718 1277.52369,718.882415 1275.04065,718.882415 Z M1275.04065,687.570376 C1272.55761,687.570376 1270.54472,685.567679 1270.54472,683.097227 C1270.54472,680.626775 1272.55761,678.624079 1275.04065,678.624079 C1277.52369,678.624079 1279.53659,680.626775 1279.53659,683.097227 C1279.53659,685.567679 1277.52369,687.570376 1275.04065,687.570376 Z M1275.04065,656.258336 C1272.55761,656.258336 1270.54472,654.255639 1270.54472,651.785188 C1270.54472,649.314736 1272.55761,647.312039 1275.04065,647.312039 C1277.52369,647.312039 1279.53659,649.314736 1279.53659,651.785188 C1279.53659,654.255639 1277.52369,656.258336 1275.04065,656.258336 Z M1275.04065,624.946297 C1272.55761,624.946297 1270.54472,622.9436 1270.54472,620.473148 C1270.54472,618.002697 1272.55761,616 1275.04065,616 C1277.52369,616 1279.53659,618.002697 1279.53659,620.473148 C1279.53659,622.9436 1277.52369,624.946297 1275.04065,624.946297 Z M1245.49593,781.506494 C1243.0129,781.506494 1241,779.503797 1241,777.033345 C1241,774.562893 1243.0129,772.560197 1245.49593,772.560197 C1247.97897,772.560197 1249.99187,774.562893 1249.99187,777.033345 C1249.99187,779.503797 1247.97897,781.506494 1245.49593,781.506494 Z M1245.49593,750.194454 C1243.0129,750.194454 1241,748.191757 1241,745.721306 C1241,743.250854 1243.0129,741.248157 1245.49593,741.248157 C1247.97897,741.248157 1249.99187,743.250854 1249.99187,745.721306 C1249.99187,748.191757 1247.97897,750.194454 1245.49593,750.194454 Z M1245.49593,718.882415 C1243.0129,718.882415 1241,716.879718 1241,714.409266 C1241,711.938815 1243.0129,709.936118 1245.49593,709.936118 C1247.97897,709.936118 1249.99187,711.938815 1249.99187,714.409266 C1249.99187,716.879718 1247.97897,718.882415 1245.49593,718.882415 Z M1245.49593,687.570376 C1243.0129,687.570376 1241,685.567679 1241,683.097227 C1241,680.626775 1243.0129,678.624079 1245.49593,678.624079 C1247.97897,678.624079 1249.99187,680.626775 1249.99187,683.097227 C1249.99187,685.567679 1247.97897,687.570376 1245.49593,687.570376 Z M1245.49593,656.258336 C1243.0129,656.258336 1241,654.255639 1241,651.785188 C1241,649.314736 1243.0129,647.312039 1245.49593,647.312039 C1247.97897,647.312039 1249.99187,649.314736 1249.99187,651.785188 C1249.99187,654.255639 1247.97897,656.258336 1245.49593,656.258336 Z M1245.49593,624.946297 C1243.0129,624.946297 1241,622.9436 1241,620.473148 C1241,618.002697 1243.0129,616 1245.49593,616 C1247.97897,616 1249.99187,618.002697 1249.99187,620.473148 C1249.99187,622.9436 1247.97897,624.946297 1245.49593,624.946297 Z M1394.50407,970 C1392.02103,970 1390.00813,967.997303 1390.00813,965.526852 C1390.00813,963.0564 1392.02103,961.053703 1394.50407,961.053703 C1396.9871,961.053703 1399,963.0564 1399,965.526852 C1399,967.997303 1396.9871,970 1394.50407,970 Z M1394.50407,938.687961 C1392.02103,938.687961 1390.00813,936.685264 1390.00813,934.214812 C1390.00813,931.744361 1392.02103,929.741664 1394.50407,929.741664 C1396.9871,929.741664 1399,931.744361 1399,934.214812 C1399,936.685264 1396.9871,938.687961 1394.50407,938.687961 Z M1394.50407,907.375921 C1392.02103,907.375921 1390.00813,905.373225 1390.00813,902.902773 C1390.00813,900.432321 1392.02103,898.429624 1394.50407,898.429624 C1396.9871,898.429624 1399,900.432321 1399,902.902773 C1399,905.373225 1396.9871,907.375921 1394.50407,907.375921 Z M1394.50407,876.063882 C1392.02103,876.063882 1390.00813,874.061185 1390.00813,871.590734 C1390.00813,869.120282 1392.02103,867.117585 1394.50407,867.117585 C1396.9871,867.117585 1399,869.120282 1399,871.590734 C1399,874.061185 1396.9871,876.063882 1394.50407,876.063882 Z M1394.50407,844.751843 C1392.02103,844.751843 1390.00813,842.749146 1390.00813,840.278694 C1390.00813,837.808243 1392.02103,835.805546 1394.50407,835.805546 C1396.9871,835.805546 1399,837.808243 1399,840.278694 C1399,842.749146 1396.9871,844.751843 1394.50407,844.751843 Z M1394.50407,813.439803 C1392.02103,813.439803 1390.00813,811.437107 1390.00813,808.966655 C1390.00813,806.496203 1392.02103,804.493506 1394.50407,804.493506 C1396.9871,804.493506 1399,806.496203 1399,808.966655 C1399,811.437107 1396.9871,813.439803 1394.50407,813.439803 Z M1364.95935,970 C1362.47631,970 1360.46341,967.997303 1360.46341,965.526852 C1360.46341,963.0564 1362.47631,961.053703 1364.95935,961.053703 C1367.44239,961.053703 1369.45528,963.0564 1369.45528,965.526852 C1369.45528,967.997303 1367.44239,970 1364.95935,970 Z M1364.95935,938.687961 C1362.47631,938.687961 1360.46341,936.685264 1360.46341,934.214812 C1360.46341,931.744361 1362.47631,929.741664 1364.95935,929.741664 C1367.44239,929.741664 1369.45528,931.744361 1369.45528,934.214812 C1369.45528,936.685264 1367.44239,938.687961 1364.95935,938.687961 Z M1364.95935,907.375921 C1362.47631,907.375921 1360.46341,905.373225 1360.46341,902.902773 C1360.46341,900.432321 1362.47631,898.429624 1364.95935,898.429624 C1367.44239,898.429624 1369.45528,900.432321 1369.45528,902.902773 C1369.45528,905.373225 1367.44239,907.375921 1364.95935,907.375921 Z M1364.95935,876.063882 C1362.47631,876.063882 1360.46341,874.061185 1360.46341,871.590734 C1360.46341,869.120282 1362.47631,867.117585 1364.95935,867.117585 C1367.44239,867.117585 1369.45528,869.120282 1369.45528,871.590734 C1369.45528,874.061185 1367.44239,876.063882 1364.95935,876.063882 Z M1364.95935,844.751843 C1362.47631,844.751843 1360.46341,842.749146 1360.46341,840.278694 C1360.46341,837.808243 1362.47631,835.805546 1364.95935,835.805546 C1367.44239,835.805546 1369.45528,837.808243 1369.45528,840.278694 C1369.45528,842.749146 1367.44239,844.751843 1364.95935,844.751843 Z M1364.95935,813.439803 C1362.47631,813.439803 1360.46341,811.437107 1360.46341,808.966655 C1360.46341,806.496203 1362.47631,804.493506 1364.95935,804.493506 C1367.44239,804.493506 1369.45528,806.496203 1369.45528,808.966655 C1369.45528,811.437107 1367.44239,813.439803 1364.95935,813.439803 Z M1335.41463,970 C1332.9316,970 1330.9187,967.997303 1330.9187,965.526852 C1330.9187,963.0564 1332.9316,961.053703 1335.41463,961.053703 C1337.89767,961.053703 1339.91057,963.0564 1339.91057,965.526852 C1339.91057,967.997303 1337.89767,970 1335.41463,970 Z M1335.41463,938.687961 C1332.9316,938.687961 1330.9187,936.685264 1330.9187,934.214812 C1330.9187,931.744361 1332.9316,929.741664 1335.41463,929.741664 C1337.89767,929.741664 1339.91057,931.744361 1339.91057,934.214812 C1339.91057,936.685264 1337.89767,938.687961 1335.41463,938.687961 Z M1335.41463,907.375921 C1332.9316,907.375921 1330.9187,905.373225 1330.9187,902.902773 C1330.9187,900.432321 1332.9316,898.429624 1335.41463,898.429624 C1337.89767,898.429624 1339.91057,900.432321 1339.91057,902.902773 C1339.91057,905.373225 1337.89767,907.375921 1335.41463,907.375921 Z M1335.41463,876.063882 C1332.9316,876.063882 1330.9187,874.061185 1330.9187,871.590734 C1330.9187,869.120282 1332.9316,867.117585 1335.41463,867.117585 C1337.89767,867.117585 1339.91057,869.120282 1339.91057,871.590734 C1339.91057,874.061185 1337.89767,876.063882 1335.41463,876.063882 Z M1335.41463,844.751843 C1332.9316,844.751843 1330.9187,842.749146 1330.9187,840.278694 C1330.9187,837.808243 1332.9316,835.805546 1335.41463,835.805546 C1337.89767,835.805546 1339.91057,837.808243 1339.91057,840.278694 C1339.91057,842.749146 1337.89767,844.751843 1335.41463,844.751843 Z M1335.41463,813.439803 C1332.9316,813.439803 1330.9187,811.437107 1330.9187,808.966655 C1330.9187,806.496203 1332.9316,804.493506 1335.41463,804.493506 C1337.89767,804.493506 1339.91057,806.496203 1339.91057,808.966655 C1339.91057,811.437107 1337.89767,813.439803 1335.41463,813.439803 Z M1304.58537,970 C1302.10233,970 1300.08943,967.997303 1300.08943,965.526852 C1300.08943,963.0564 1302.10233,961.053703 1304.58537,961.053703 C1307.0684,961.053703 1309.0813,963.0564 1309.0813,965.526852 C1309.0813,967.997303 1307.0684,970 1304.58537,970 Z M1304.58537,938.687961 C1302.10233,938.687961 1300.08943,936.685264 1300.08943,934.214812 C1300.08943,931.744361 1302.10233,929.741664 1304.58537,929.741664 C1307.0684,929.741664 1309.0813,931.744361 1309.0813,934.214812 C1309.0813,936.685264 1307.0684,938.687961 1304.58537,938.687961 Z M1304.58537,907.375921 C1302.10233,907.375921 1300.08943,905.373225 1300.08943,902.902773 C1300.08943,900.432321 1302.10233,898.429624 1304.58537,898.429624 C1307.0684,898.429624 1309.0813,900.432321 1309.0813,902.902773 C1309.0813,905.373225 1307.0684,907.375921 1304.58537,907.375921 Z M1304.58537,876.063882 C1302.10233,876.063882 1300.08943,874.061185 1300.08943,871.590734 C1300.08943,869.120282 1302.10233,867.117585 1304.58537,867.117585 C1307.0684,867.117585 1309.0813,869.120282 1309.0813,871.590734 C1309.0813,874.061185 1307.0684,876.063882 1304.58537,876.063882 Z M1304.58537,844.751843 C1302.10233,844.751843 1300.08943,842.749146 1300.08943,840.278694 C1300.08943,837.808243 1302.10233,835.805546 1304.58537,835.805546 C1307.0684,835.805546 1309.0813,837.808243 1309.0813,840.278694 C1309.0813,842.749146 1307.0684,844.751843 1304.58537,844.751843 Z M1304.58537,813.439803 C1302.10233,813.439803 1300.08943,811.437107 1300.08943,808.966655 C1300.08943,806.496203 1302.10233,804.493506 1304.58537,804.493506 C1307.0684,804.493506 1309.0813,806.496203 1309.0813,808.966655 C1309.0813,811.437107 1307.0684,813.439803 1304.58537,813.439803 Z M1275.04065,970 C1272.55761,970 1270.54472,967.997303 1270.54472,965.526852 C1270.54472,963.0564 1272.55761,961.053703 1275.04065,961.053703 C1277.52369,961.053703 1279.53659,963.0564 1279.53659,965.526852 C1279.53659,967.997303 1277.52369,970 1275.04065,970 Z M1275.04065,938.687961 C1272.55761,938.687961 1270.54472,936.685264 1270.54472,934.214812 C1270.54472,931.744361 1272.55761,929.741664 1275.04065,929.741664 C1277.52369,929.741664 1279.53659,931.744361 1279.53659,934.214812 C1279.53659,936.685264 1277.52369,938.687961 1275.04065,938.687961 Z M1275.04065,907.375921 C1272.55761,907.375921 1270.54472,905.373225 1270.54472,902.902773 C1270.54472,900.432321 1272.55761,898.429624 1275.04065,898.429624 C1277.52369,898.429624 1279.53659,900.432321 1279.53659,902.902773 C1279.53659,905.373225 1277.52369,907.375921 1275.04065,907.375921 Z M1275.04065,876.063882 C1272.55761,876.063882 1270.54472,874.061185 1270.54472,871.590734 C1270.54472,869.120282 1272.55761,867.117585 1275.04065,867.117585 C1277.52369,867.117585 1279.53659,869.120282 1279.53659,871.590734 C1279.53659,874.061185 1277.52369,876.063882 1275.04065,876.063882 Z M1275.04065,844.751843 C1272.55761,844.751843 1270.54472,842.749146 1270.54472,840.278694 C1270.54472,837.808243 1272.55761,835.805546 1275.04065,835.805546 C1277.52369,835.805546 1279.53659,837.808243 1279.53659,840.278694 C1279.53659,842.749146 1277.52369,844.751843 1275.04065,844.751843 Z M1275.04065,813.439803 C1272.55761,813.439803 1270.54472,811.437107 1270.54472,808.966655 C1270.54472,806.496203 1272.55761,804.493506 1275.04065,804.493506 C1277.52369,804.493506 1279.53659,806.496203 1279.53659,808.966655 C1279.53659,811.437107 1277.52369,813.439803 1275.04065,813.439803 Z M1245.49593,970 C1243.0129,970 1241,967.997303 1241,965.526852 C1241,963.0564 1243.0129,961.053703 1245.49593,961.053703 C1247.97897,961.053703 1249.99187,963.0564 1249.99187,965.526852 C1249.99187,967.997303 1247.97897,970 1245.49593,970 Z M1245.49593,938.687961 C1243.0129,938.687961 1241,936.685264 1241,934.214812 C1241,931.744361 1243.0129,929.741664 1245.49593,929.741664 C1247.97897,929.741664 1249.99187,931.744361 1249.99187,934.214812 C1249.99187,936.685264 1247.97897,938.687961 1245.49593,938.687961 Z M1245.49593,907.375921 C1243.0129,907.375921 1241,905.373225 1241,902.902773 C1241,900.432321 1243.0129,898.429624 1245.49593,898.429624 C1247.97897,898.429624 1249.99187,900.432321 1249.99187,902.902773 C1249.99187,905.373225 1247.97897,907.375921 1245.49593,907.375921 Z M1245.49593,876.063882 C1243.0129,876.063882 1241,874.061185 1241,871.590734 C1241,869.120282 1243.0129,867.117585 1245.49593,867.117585 C1247.97897,867.117585 1249.99187,869.120282 1249.99187,871.590734 C1249.99187,874.061185 1247.97897,876.063882 1245.49593,876.063882 Z M1245.49593,844.751843 C1243.0129,844.751843 1241,842.749146 1241,840.278694 C1241,837.808243 1243.0129,835.805546 1245.49593,835.805546 C1247.97897,835.805546 1249.99187,837.808243 1249.99187,840.278694 C1249.99187,842.749146 1247.97897,844.751843 1245.49593,844.751843 Z M1245.49593,813.439803 C1243.0129,813.439803 1241,811.437107 1241,808.966655 C1241,806.496203 1243.0129,804.493506 1245.49593,804.493506 C1247.97897,804.493506 1249.99187,806.496203 1249.99187,808.966655 C1249.99187,811.437107 1247.97897,813.439803 1245.49593,813.439803 Z" id="Shape" fill="#DC2249" mask="url(#mask-2)"></path>
                <g id="Shape" mask="url(#mask-2)">
                    <g transform="translate(483.000000, 388.000000)">
                        <ellipse fill="#F2F2F2" cx="223.719223" cy="223.650717" rx="223.719223" ry="223.650717"></ellipse>
                        <ellipse fill="#75CBB3" cx="288.076808" cy="143.994297" rx="98.0687007" ry="98.0386706"></ellipse>
                    </g>
                </g>
                <circle id="Shape" fill="#7A4865" mask="url(#mask-2)" cx="430.5" cy="222.5" r="70.5"></circle>
                <circle id="Shape" fill="#7A4865" mask="url(#mask-2)" cx="1091.5" cy="328.5" r="70.5"></circle>
                <circle id="Shape" fill="#7A4865" mask="url(#mask-2)" cx="300" cy="126" r="26"></circle>
                <circle id="Shape" fill="#F2F2F2" mask="url(#mask-2)" cx="326.5" cy="366.5" r="34.5"></circle>
            </g>
        </g>
    </g>
</svg>